<?xml version="1.0" encoding="UTF-8" standalone="no"?>
<svg
   xmlns:dc="http://purl.org/dc/elements/1.1/"
   xmlns:cc="http://creativecommons.org/ns#"
   xmlns:rdf="http://www.w3.org/1999/02/22-rdf-syntax-ns#"
   xmlns:svg="http://www.w3.org/2000/svg"
   xmlns="http://www.w3.org/2000/svg"
   id="beerglass"
   version="1.1"
   viewBox="0 0 13.229184 26.457848"
   height="99.998161"
   width="50.000065">
  <defs
     id="defs5970">
    <clipPath
       id="clipPath6531"
       clipPathUnits="userSpaceOnUse">
      <path
         style="fill:none;stroke:#000000;stroke-width:0.51918024;stroke-miterlimit:4;stroke-dasharray:none;stroke-opacity:1"
         d="m 3.2732249,296.72135 c -0.2224108,-0.0333 -0.3565112,-0.0776 -0.5675436,-0.18734 -0.5865138,-0.30481 -0.9864692,-0.8905 -1.110198,-1.62578 -0.049503,-0.2942 -0.034542,-0.61495 0.053751,-1.15318 0.035465,-0.21601 0.1885533,-1.18475 0.3402566,-2.15278 0.3741604,-2.38743 0.373911,-2.404 -0.05255,-3.40369 -0.6520677,-1.52875 -1.05245699,-2.92013 -1.33943368,-4.65464 -0.25369168,-1.53337 -0.35188421,-2.86522 -0.33672865,-4.56737 0.0185635,-2.08056 0.21927077,-3.82824 0.64525192,-5.61773 0.22786901,-0.95721 0.64971261,-2.28202 0.76584981,-2.40514 0.1520173,-0.16118 -0.1522298,-0.15184 4.9424027,-0.15184 5.094632,0 4.790385,-0.01 4.942402,0.15184 0.116137,0.12312 0.537981,1.44793 0.765851,2.40514 0.425981,1.78949 0.626716,3.53717 0.645251,5.61773 0.01515,1.70215 -0.08303,3.034 -0.336738,4.56737 -0.286968,1.73451 -0.687357,3.12589 -1.339434,4.65464 -0.267084,0.62617 -0.324362,0.85568 -0.32669,1.30911 -0.0019,0.3054 0.02808,0.52344 0.33962,2.50187 0.187731,1.19202 0.347378,2.27858 0.354775,2.4146 0.02401,0.44195 -0.09087,0.91732 -0.318331,1.31689 -0.193236,0.33947 -0.480296,0.61715 -0.822428,0.79554 -0.404637,0.21099 -0.148027,0.19727 -3.8011723,0.20316 -1.8076492,0.003 -3.3575336,-0.005 -3.444182,-0.0184 z"
         id="path6533" />
    </clipPath>
  </defs>
 
  <g
     transform="translate(3.0932324e-4,-270.54212)"
     id="layer1">
    <rect
       clip-path="url(#clipPath6531)"
       width="13.229167"
       height="26.458334"
       y="270.54163"
       x="-0.00030932325"
       id="fill"
       style="fill:#d28816;fill-opacity:1;stroke:none;stroke-width:0.47863793;stroke-miterlimit:4;stroke-dasharray:none" />
    <path
       id="path5108"
       d="m 3.273225,296.72135 c -0.2224109,-0.0333 -0.3565112,-0.0776 -0.5675438,-0.18734 -0.5865137,-0.30481 -0.9864691,-0.8905 -1.1101979,-1.62578 -0.049503,-0.2942 -0.034542,-0.61495 0.053751,-1.15318 0.035465,-0.21601 0.1885533,-1.18475 0.3402566,-2.15278 0.3741604,-2.38743 0.373911,-2.404 -0.05255,-3.40369 -0.6520677,-1.52875 -1.05245699,-2.92013 -1.33943369,-4.65464 -0.25369167,-1.53337 -0.3518842,-2.86522 -0.33672864,-4.56737 0.0185635,-2.08056 0.21927076,-3.82824 0.64525191,-5.61773 0.22786902,-0.95721 0.64971262,-2.28202 0.76584982,-2.40514 0.1520173,-0.16118 -0.1522298,-0.15184 4.9424027,-0.15184 5.094632,0 4.790385,-0.01 4.942402,0.15184 0.116137,0.12312 0.537981,1.44793 0.765851,2.40514 0.425981,1.78949 0.626716,3.53717 0.645251,5.61773 0.01515,1.70215 -0.08303,3.034 -0.336738,4.56737 -0.286968,1.73451 -0.687357,3.12589 -1.339434,4.65464 -0.267084,0.62617 -0.324362,0.85568 -0.32669,1.30911 -0.0019,0.3054 0.02808,0.52344 0.33962,2.50187 0.187731,1.19202 0.347378,2.27858 0.354775,2.4146 0.02401,0.44195 -0.09087,0.91732 -0.318331,1.31689 -0.193236,0.33947 -0.480296,0.61715 -0.822428,0.79554 -0.404637,0.21099 -0.148027,0.19727 -3.8011723,0.20316 -1.8076492,0.003 -3.3575336,-0.005 -3.4441819,-0.0184 z"
       style="fill:none;stroke:#000000;stroke-width:0.52916667;stroke-miterlimit:4;stroke-dasharray:none;stroke-opacity:1" />
  </g>
</svg>
