<?xml version="1.0" encoding="UTF-8" standalone="no"?>
<svg
   xmlns:dc="http://purl.org/dc/elements/1.1/"
   xmlns:cc="http://creativecommons.org/ns#"
   xmlns:rdf="http://www.w3.org/1999/02/22-rdf-syntax-ns#"
   xmlns:svg="http://www.w3.org/2000/svg"
   xmlns="http://www.w3.org/2000/svg"
   id="martiniglass"
   version="1.1"
   viewBox="0 0 13.226718 26.458417"
   height="100.00031"
   width="49.990746">
  <defs
     id="defs6544">
    <clipPath
       id="clipPath7132"
       clipPathUnits="userSpaceOnUse">
      <path
         id="path7134"
         style="fill:none;stroke:#000000;stroke-width:0.52916676;stroke-miterlimit:4;stroke-dasharray:none;stroke-opacity:1"
         d="m 6.6360486,270.7792 c -5.97096686,0 -6.09237725,0.002 -6.19807215,0.0899 -0.12253712,0.10239 -0.19396131,0.25597 -0.16588142,0.35605 0.0154781,0.0553 1.34523747,2.69255 1.85621747,3.68143 0.072494,0.1403 0.4394689,0.86065 0.815454,1.60042 0.3759919,0.73979 1.1619653,2.2839 1.7466635,3.43183 0.5846892,1.1479 1.0972453,2.20218 1.1394649,2.3425 l 0.076999,0.25528 0.00106,5.2896 5.291e-4,5.2896 -0.1147233,0.0568 c -0.1770036,0.0877 -0.4088156,0.39517 -0.4878255,0.64699 l -0.070797,0.22531 -0.4836903,0.17777 c -0.914812,0.3356 -1.7804945,0.78862 -2.0970296,1.0976 -0.053138,0.0519 -0.1196446,0.15485 -0.1477946,0.22945 -0.04415,0.1182 -0.044734,0.15182 -0.00259,0.26355 0.102887,0.27275 0.5783144,0.5059 1.3916462,0.68213 0.2792711,0.0604 0.7209295,0.13323 0.9813358,0.16123 0.2604056,0.028 0.5343869,0.0587 0.6087481,0.0667 0.2971641,0.0352 2.5959726,-0.0131 2.960542,-0.062 1.344785,-0.18085 2.2582082,-0.51995 2.3207902,-0.86145 0.05181,-0.28297 -0.06084,-0.44727 -0.525034,-0.76481 -0.3055403,-0.209 -1.2801301,-0.66257 -1.8494984,-0.86093 l -0.3751712,-0.13074 -0.056843,-0.21911 c -0.063905,-0.24663 -0.294984,-0.55854 -0.4826582,-0.65164 l -0.1142048,-0.0568 0.00106,-5.31286 c 0.00106,-4.19145 0.010848,-5.3479 0.044958,-5.47873 0.039484,-0.15139 0.3286998,-0.75468 0.7322555,-1.52704 0.086646,-0.16582 0.7414477,-1.4495 1.4546927,-2.85254 0.7132294,-1.40303 1.5200294,-2.98916 1.7931714,-3.52485 0.962143,-1.887 1.511624,-2.96972 1.568385,-3.08973 0.0753,-0.1592 0.02983,-0.33238 -0.120922,-0.45837 -0.109651,-0.0916 -0.173726,-0.0925 -6.201173,-0.0925 z" />
    </clipPath>
  </defs>
 
  <g
     transform="translate(7.2374933e-5,-270.54164)"
     id="layer1">
    <rect
       clip-path="url(#clipPath7132)"
       y="270.54172"
       x="-7.2374933e-05"
       height="26.458334"
       width="13.229167"
       id="fill"
       style="fill:#00ffff;fill-opacity:1;stroke:none;stroke-width:0.30462605;stroke-miterlimit:4;stroke-dasharray:none" />
    <path
       d="m 6.6360486,270.7792 c -5.97096686,0 -6.09237726,0.002 -6.19807216,0.0899 -0.1225371,0.10239 -0.1939613,0.25597 -0.1658814,0.35605 0.015478,0.0553 1.34523746,2.69255 1.85621746,3.68143 0.072494,0.1403 0.4394689,0.86065 0.815454,1.60042 0.375992,0.73979 1.1619653,2.2839 1.7466635,3.43183 0.5846892,1.1479 1.0972453,2.20218 1.1394649,2.3425 l 0.076999,0.25528 0.00106,5.2896 5.291e-4,5.2896 -0.1147233,0.0568 c -0.1770036,0.0877 -0.4088156,0.39517 -0.4878255,0.64699 l -0.070797,0.22531 -0.4836904,0.17777 c -0.9148119,0.3356 -1.7804944,0.78862 -2.0970295,1.0976 -0.053138,0.0519 -0.1196446,0.15485 -0.1477946,0.22945 -0.04415,0.1182 -0.044734,0.15182 -0.00259,0.26355 0.102887,0.27275 0.5783144,0.5059 1.3916462,0.68213 0.2792711,0.0604 0.7209295,0.13323 0.9813358,0.16123 0.2604056,0.028 0.5343869,0.0587 0.6087481,0.0667 0.2971641,0.0352 2.5959726,-0.0131 2.9605419,-0.062 1.344785,-0.18085 2.2582083,-0.51995 2.3207903,-0.86145 0.05181,-0.28297 -0.06084,-0.44727 -0.525034,-0.76481 -0.3055403,-0.209 -1.2801303,-0.66257 -1.8494984,-0.86093 l -0.3751713,-0.13074 -0.056843,-0.21911 c -0.063905,-0.24663 -0.2949839,-0.55854 -0.4826582,-0.65164 l -0.1142047,-0.0568 0.00106,-5.31286 c 0.00106,-4.19145 0.010848,-5.3479 0.044958,-5.47873 0.039484,-0.15139 0.3286998,-0.75468 0.7322556,-1.52704 0.086646,-0.16582 0.7414477,-1.4495 1.4546927,-2.85254 0.7132293,-1.40303 1.5200293,-2.98916 1.7931713,-3.52485 0.962139,-1.887 1.51162,-2.96972 1.568381,-3.08973 0.0753,-0.1592 0.02983,-0.33238 -0.120922,-0.45837 -0.109651,-0.0916 -0.173726,-0.0925 -6.2011726,-0.0925 z"
       style="fill:none;stroke:#000000;stroke-width:0.52916667;stroke-miterlimit:4;stroke-dasharray:none;stroke-opacity:1"
       id="path5232" />
  </g>
</svg>
