<?xml version="1.0" encoding="UTF-8" standalone="no"?>
<svg
   xmlns:dc="http://purl.org/dc/elements/1.1/"
   xmlns:cc="http://creativecommons.org/ns#"
   xmlns:rdf="http://www.w3.org/1999/02/22-rdf-syntax-ns#"
   xmlns:svg="http://www.w3.org/2000/svg"
   xmlns="http://www.w3.org/2000/svg"
   id="smile"
   version="1.1"
   viewBox="0 0 19.843751 19.843753"
   height="75.000008"
   width="75.000008">
  <defs
     id="defs1743">
    <clipPath
       id="clipPath2314"
       clipPathUnits="userSpaceOnUse">
      <g
         style="stroke-width:0.5291667;stroke-miterlimit:4;stroke-dasharray:none"
         id="g2318"
         transform="matrix(1.9628635,0,0,1.9628762,0.24564335,-286.22159)">
        <path
           id="path2316"
           d="m 5.8973379,296.82791 c -1.3860491,-0.16366 -2.5967524,-0.70986 -3.6332966,-1.63915 -0.6071408,-0.54431 -1.156541,-1.28125 -1.5068796,-2.02124 -0.41732944,-0.88149 -0.61772376,-1.78367 -0.61772376,-2.78095 0,-1.3421 0.36617956,-2.53615 1.11769636,-3.6446 0.9663888,-1.42539 2.4810398,-2.4152 4.171998,-2.72636 0.7507624,-0.13814 1.6201398,-0.13814 2.370902,0 1.6909583,0.31116 3.2056097,1.30097 4.1720037,2.72636 0.505128,0.74504 0.826529,1.50832 0.997943,2.36998 0.08507,0.42761 0.119747,0.79676 0.119747,1.27462 0,1.3413 -0.366629,2.53682 -1.11769,3.64461 -0.966394,1.4254 -2.4810454,2.4152 -4.1720037,2.72635 -0.5565265,0.10241 -1.3750463,0.13268 -1.9026964,0.0704 z"
           style="fill:none;stroke:#000000;stroke-width:0.5291667;stroke-miterlimit:4;stroke-dasharray:none;stroke-opacity:1" />
      </g>
    </clipPath>
    <clipPath
       id="clipPath2327"
       clipPathUnits="userSpaceOnUse">
      <path
         style="fill:none;fill-opacity:1;stroke:#000000;stroke-width:0.51542211;stroke-linecap:round;stroke-miterlimit:4;stroke-dasharray:none;stroke-opacity:1"
         d="m 19.58604,287.07812 a 9.6641645,9.6641637 0 0 1 -9.664165,9.66417 9.6641645,9.6641637 0 0 1 -9.66416454,-9.66417 9.6641645,9.6641637 0 0 1 9.66416454,-9.66416 9.6641645,9.6641637 0 0 1 9.664165,9.66416 z"
         id="path2329" />
    </clipPath>
  </defs>
  <g
     transform="translate(5.9289675e-7,-277.15625)"
     id="layer1">
    <rect
       clip-path="url(#clipPath2327)"
       y="277.15622"
       x="-5.5511151e-17"
       height="19.84375"
       width="19.84375"
       id="fill"
       style="fill:#00ff00;fill-opacity:1;stroke:none;stroke-width:0.46147865;stroke-linecap:round;stroke-miterlimit:4;stroke-dasharray:none;stroke-opacity:1" />
    <path
       id="path2320"
       d="m 19.58604,287.07812 a 9.6641645,9.6641636 0 0 1 -9.664165,9.66417 9.6641645,9.6641636 0 0 1 -9.66416454,-9.66417 9.6641645,9.6641636 0 0 1 9.66416454,-9.66416 9.6641645,9.6641636 0 0 1 9.664165,9.66416 z"
       style="fill:none;fill-opacity:1;stroke:#000000;stroke-width:0.51542211;stroke-linecap:round;stroke-miterlimit:4;stroke-dasharray:none;stroke-opacity:1" />
    <circle
       r="1.0583333"
       cy="284.03543"
       cx="6.6145825"
       id="path2335"
       style="fill:#000000;fill-opacity:1;stroke:none;stroke-width:0.49803919;stroke-linecap:round;stroke-miterlimit:4;stroke-dasharray:none;stroke-opacity:1" />
    <circle
       r="1.0583333"
       style="fill:#000000;fill-opacity:1;stroke:none;stroke-width:0.49803919;stroke-linecap:round;stroke-miterlimit:4;stroke-dasharray:none;stroke-opacity:1"
       id="circle2337"
       cx="13.229166"
       cy="284.03543" />
    <path
       id="path2339"
       d="m 5.2916661,291.70834 c 0,0 2.0896024,1.32291 4.6302083,1.32291 2.5406056,0 4.6302086,-1.32291 4.6302086,-1.32291"
       style="fill:none;stroke:#000000;stroke-width:0.79374999;stroke-linecap:round;stroke-linejoin:miter;stroke-miterlimit:4;stroke-dasharray:none;stroke-opacity:1" />
  </g>
</svg>
