<?xml version="1.0" encoding="UTF-8" standalone="no"?>
<svg
   xmlns:dc="http://purl.org/dc/elements/1.1/"
   xmlns:cc="http://creativecommons.org/ns#"
   xmlns:rdf="http://www.w3.org/1999/02/22-rdf-syntax-ns#"
   xmlns:svg="http://www.w3.org/2000/svg"
   xmlns="http://www.w3.org/2000/svg"
   id="wineglass"
   version="1.1"
   viewBox="0 0 13.229166 26.458333"
   height="100"
   width="50">
  <defs
     id="defs5420">
    <clipPath
       id="clipPath6296"
       clipPathUnits="userSpaceOnUse">
      <path
         style="fill:none;stroke:#000000;stroke-width:0.52916664;stroke-miterlimit:4;stroke-dasharray:none;stroke-opacity:1"
         d="m 59.470406,141.2066 c -0.021,-0.021 -0.4879,-0.20785 -1.03766,-0.41533 -1.11721,-0.42163 -1.49981,-0.62483 -1.99162,-1.05774 -0.7235,-0.63685 -0.88624,-1.49146 -0.88485,-4.6469 0.002,-3.67925 0.12062,-4.0498 1.52363,-4.74429 2.06292,-1.02116 3.27549,-2.31441 3.84058,-4.09613 0.26208,-0.82634 0.29613,-2.33656 0.076,-3.36903 -0.33423,-1.56731 -1.37168,-5.2548 -1.59669,-5.67523 -0.0688,-0.12865 -0.302,-0.13617 -4.22054,-0.13617 h -4.14766 l -0.15064,0.4026 c -0.17918,0.47892 -0.73939,2.38444 -1.05897,3.60203 -0.56986,2.17121 -0.68956,3.09413 -0.54384,4.19353 0.29736,2.24357 1.53317,3.82129 3.93709,5.02633 0.48776,0.24451 0.95718,0.53399 1.04316,0.6433 0.26952,0.34264 0.45853,0.98419 0.53854,1.82794 0.15308,1.61418 0.0635,4.83257 -0.15986,5.74588 -0.2554,1.0442 -0.91763,1.62597 -2.52231,2.21586 -1.50115,0.55183 -1.72072,0.51504 3.09321,0.51842 2.36531,0.002 4.28342,-0.0141 4.26247,-0.0351 z"
         id="path6298" />
    </clipPath>
  </defs>
  <g
     transform="translate(-48.957766,-115.09762)"
     id="layer1">
    <rect
       transform="matrix(1.0607825,0,0,1.0688183,-2.9747053,-9.7057433)"
       clip-path="url(#clipPath6296)"
       y="116.80096"
       x="48.957767"
       height="24.754999"
       width="12.454"
       id="fill"
       style="fill:#5c0010;fill-opacity:1;stroke:none;stroke-width:0.23024997" />
    <path
       id="path5072"
       d="m 60.11046,141.21846 c -0.02228,-0.0224 -0.517555,-0.22216 -1.100731,-0.44391 -1.185117,-0.45065 -1.590972,-0.66783 -2.112676,-1.13054 -0.767476,-0.68067 -0.940108,-1.5941 -0.938633,-4.96669 0.0021,-3.93245 0.127951,-4.3285 1.61624,-5.07078 2.188309,-1.09144 3.474582,-2.47369 4.07402,-4.37802 0.27801,-0.88321 0.31413,-2.49736 0.08062,-3.60088 -0.354545,-1.67517 -1.455054,-5.61643 -1.69374,-6.06579 -0.07298,-0.1375 -0.320357,-0.14554 -4.477075,-0.14554 H 51.15872 l -0.159797,0.4303 c -0.190071,0.51188 -0.784332,2.54854 -1.123337,3.84992 -0.604497,2.32063 -0.731473,3.30706 -0.576896,4.48212 0.315435,2.39797 1.62636,4.08427 4.176397,5.37223 0.517407,0.26134 1.015359,0.57074 1.106566,0.68758 0.285902,0.36622 0.4864,1.05192 0.571273,1.95373 0.162385,1.72527 0.06736,5.16514 -0.169576,6.1413 -0.270924,1.11606 -0.973406,1.73787 -2.675623,2.36836 -1.592393,0.5898 -1.825309,0.55048 3.281223,0.55409 2.50908,0.002 4.543777,-0.0151 4.521554,-0.0375 z"
       style="fill:none;stroke:#000000;stroke-width:0.56345284;stroke-miterlimit:4;stroke-dasharray:none;stroke-opacity:1" />
  </g>
</svg>
